<?xml version="1.0" encoding="UTF-8"?>
<svg id="Calque_2" data-name="Calque 2" xmlns="http://www.w3.org/2000/svg" viewBox="0 0 292.43 153.98">
  <defs>
    <style>
      .cls-1 {
        fill: #111;
        stroke-width: 0px;
      }
    </style>
  </defs>
  <g id="Calque_1-2" data-name="Calque 1">
    <path class="cls-1" d="m105.54,80.05l-.41-.46c9.23-19.39,16.33-40.98,23.01-69.97.1-.66.28-1.28.44-1.88.55-2.03,1.12-4.13-1.55-6.05l-.25-.18-.29.11c-2.27.88-3.46,1.95-4,3.61l-1.15,3.49c-6.33,18.43-14.2,40.07-24.6,61.22-7.3-8.77-14.1-17.88-19.23-24.88-8.87-12.48-15.75-26.21-21.85-39.19l-.71-1.49c-.36-.53-.89-.78-1.63-.78-.47,0-.99.1-1.59.21l-.66.12-.58.48c-1.1.89-1.97,1.6-1.89,2.9l.32,1.55c.24,1.27.83,4.08,1.32,6.42l.63,3.02c5.99,30.32,25.51,49.95,41.01,61.14-14.57,27.17-30.98,46.77-48.76,58.24-5.29,3.28-10.25,4.94-14.73,4.94h0c-9.24,0-16.54-7.36-20.06-20.24-.57-1.44-.83-2.95-1.07-4.41-.49-2.93-.99-5.95-4.13-8.19l-.46-.33-.33.46c-3.06,4.21-2.41,7.91-1.78,11.49.2,1.16.42,2.36.51,3.61,2.89,21.22,16.25,28.75,26.81,28.75,1.12,0,2.29-.07,3.46-.22,22.27-3.06,39.92-22.41,52.83-38.93,6.62-8.82,12.47-18.2,17.86-28.68.24.06.49.09.75.09.84,0,1.84-.31,3.05-.94l.2-.11.07-.22c.98-2.87.31-3.98-.52-4.72"/>
    <path class="cls-1" d="m136.27,71.73c-1.01-.3-1.97-.73-2.91-1.33.03-.02.06-.04.09-.06.89-.62,1.81-1.64,1.87-4.45v-.3s-.24-.17-.24-.17c-1-.7-1.92-1.04-2.8-1.04-1.23,0-2.23.65-3.26,1.38-.85-1.58-1.4-3.37-1.61-5.24.96.03,1.98.13,3.04.29,6.75,1.16,14.13,4.86,14.99,11.76-.71.04-1.41.06-2.11.06-2.7,0-5.07-.3-7.05-.9m-9.18,33.26c-.97.43-1.65.62-2.24.62-.79,0-1.46-.34-2.56-1.3-6.37-5.85-1.85-16.84,1.4-22.88.63-1.18,1.41-2.39,2.43-3.77,2.15,1.29,4.49,2.15,6.97,2.54,1.69.27,3.45.41,5.23.41,1.91,0,3.87-.15,5.98-.46-2.58,8.97-9.2,20.15-17.21,24.84M222.23,14.76c1.92,2.84.9,8.79-1.99,11.57-10.03,9.95-21.95,19.46-36.42,29.03,4.06-9.51,8.15-17.59,12.49-24.67,3.65-5.85,7.28-10.39,10.79-13.49,3.2-2.9,6.43-4.37,9.61-4.37.63,0,1.26.06,1.89.17,1.69.28,2.88.67,3.63,1.75m3.51,55.24c.73-.7,1.39-1.83,1.51-4.1l.02-.33-.28-.18c-.98-.63-1.89-.94-2.77-.94-1.06,0-1.98.45-2.77.97-.75-1.38-1.27-2.91-1.52-4.5,7.83.44,15.93,4.01,17.29,11.16-.55.03-1.09.04-1.64.04-3.44,0-6.43-.54-8.86-1.61-.33-.15-.66-.32-.98-.51m-7.99,35.6c-.3.07-.6.11-.89.11-1.65,0-2.85-1.19-4.22-3.07-4.15-6.48-.18-16.83,5.03-24.52,3.57,2.15,7.91,3.24,12.92,3.24,1.72,0,3.54-.13,5.43-.38-3.1,9.93-10.64,21.64-18.26,24.62m45.77-38.31c-.94-.25-1.85-.37-2.78-.37-2.28,0-4.2.74-6.23,1.53-1.2.46-2.43.94-3.77,1.27-.86-10.86-10.59-18.04-19.42-20.15-2.91-.76-6.12-1.18-9.03-1.18-4,0-9.41.77-12.47,4.43-2.04,2.44-2.7,5.79-1.96,9.93.53,3.96,1.98,7.4,4.42,10.5-1.67,1.84-3.21,3.81-4.47,5.75-.8.59-1.57,1.21-2.31,1.86-7.26,5.89-15.24,11.61-23.73,16.98-.88.53-1.78,1.07-2.69,1.63-4.14,2.52-8.42,5.13-12.62,6.65.83-5.58,2.97-11.74,5.04-17.71.78-2.26,1.56-4.49,2.24-6.63,1.83-5.21,3.51-9.83,5.14-14.11,18.42-9.86,33.89-20.36,47.3-32.08,9.02-7.67,12.1-19.93,7.13-28.54-2.76-4.47-8.13-7.03-14.73-7.03-2.81,0-5.71.49-8.4,1.43-16.36,6.34-30.66,27.48-43.69,64.64-2.89,1.58-5.37,2.8-7.71,3.79-1.19-11.42-11.37-20-25.03-20.97-1.05-.12-2.12-.18-3.2-.18-3.05,0-8.65.5-11.92,3.88-1.73,1.78-2.56,4.09-2.48,6.88.1,4.89,1.68,9.58,4.49,13.26-2.97,3.23-5.62,7.07-7.88,11.41-2.65,5.07-4.07,9.79-4.36,14.44-.37,9.45,4.38,16.84,12.16,18.84.91.14,1.84.22,2.75.22,9.57,0,17.47-7.57,22.41-13.92,5.62-7.23,10.28-16.61,12.15-24.45.25-.87.43-1.72.56-2.41,1.65-.51,3.32-1.1,4.99-1.76-.54,1.63-1.04,3.19-1.53,4.68-.41,1.71-1.1,3.97-1.9,6.58-3.37,10.96-7.99,25.98-.92,29.99.85.55,1.91.82,3.17.82,9.1,0,27.94-14.86,39.3-24.59-.77,3.04-1.11,5.99-1.01,8.8.74,9.51,7.02,16.15,15.28,16.15h0c3.81,0,7.71-1.39,11.6-4.15,11.47-8.54,20.15-22.35,22.71-36.12,2.51-.93,5.14-2.04,7.83-3.29,2.07-.93,4.61-2.44,5.95-5.94l.23-.59-.61-.16Z"/>
    <path class="cls-1" d="m250.71,105.57c-3.52,0-6.89,2.86-7.51,6.38-.31,1.76.1,3.42,1.14,4.67,1.03,1.23,2.55,1.9,4.28,1.9,3.52,0,6.89-2.86,7.5-6.37.31-1.76-.1-3.42-1.14-4.67-1.03-1.23-2.55-1.9-4.28-1.9"/>
    <g>
      <path class="cls-1" d="m85.24,149.32h6.54l-.81,4.45h-12.43l3.74-21.07h5.86l-2.9,16.61Z"/>
      <path class="cls-1" d="m102,137.34l-.6,3.5h6.72l-.81,4.45h-6.72l-.69,3.83h7.62l-.81,4.66h-13.51l3.74-21.07h13.48l-.81,4.63h-7.62Z"/>
      <path class="cls-1" d="m119.04,137.65c1.15-1.62,2.61-2.89,4.36-3.79,1.75-.91,3.67-1.36,5.74-1.36,1.73,0,3.25.32,4.54.96,1.29.64,2.3,1.54,3.02,2.72.72,1.18,1.11,2.56,1.17,4.15h-6.3c-.24-.78-.66-1.38-1.25-1.79-.6-.42-1.33-.63-2.21-.63-1.35,0-2.52.48-3.5,1.43s-1.6,2.24-1.88,3.85c-.08.42-.12.87-.12,1.34,0,1.24.32,2.21.97,2.91.65.71,1.54,1.06,2.67,1.06.88,0,1.69-.21,2.44-.63.75-.42,1.37-1.02,1.87-1.79h6.33c-.96,2.41-2.46,4.32-4.51,5.72s-4.39,2.11-7.02,2.11c-1.81,0-3.38-.35-4.71-1.05-1.33-.7-2.34-1.68-3.03-2.96-.7-1.27-1.05-2.75-1.05-4.42,0-.78.07-1.54.21-2.3.36-2.07,1.12-3.92,2.27-5.54Z"/>
      <path class="cls-1" d="m143.75,152.88c-1.35-.74-2.4-1.77-3.14-3.11s-1.11-2.87-1.11-4.6c0-2.49.52-4.71,1.57-6.65s2.51-3.45,4.39-4.53,4.04-1.61,6.47-1.61c1.81,0,3.4.36,4.77,1.09,1.36.73,2.42,1.75,3.15,3.08.74,1.33,1.11,2.85,1.11,4.59,0,2.47-.53,4.68-1.58,6.63-1.06,1.95-2.53,3.48-4.42,4.57-1.89,1.1-4.06,1.64-6.51,1.64-1.77,0-3.34-.37-4.69-1.11Zm8.68-5.26c.89-.62,1.56-1.44,2.03-2.47.47-1.03.7-2.14.7-3.33,0-1.27-.34-2.27-1.03-2.97-.69-.71-1.67-1.06-2.94-1.06-1.18,0-2.21.3-3.11.91-.9.61-1.58,1.42-2.06,2.44s-.72,2.13-.72,3.35.35,2.25,1.05,2.97c.7.73,1.69,1.09,2.99,1.09,1.18,0,2.21-.31,3.09-.93Z"/>
      <path class="cls-1" d="m181.31,153.78h-5.89l-5.68-11.77-2.09,11.77h-5.89l3.74-21.07h5.86l5.71,11.92,2.09-11.92h5.86l-3.71,21.07Z"/>
      <path class="cls-1" d="m188.06,137.65c1.15-1.62,2.61-2.89,4.36-3.79,1.75-.91,3.67-1.36,5.74-1.36,1.73,0,3.25.32,4.54.96,1.29.64,2.3,1.54,3.02,2.72.72,1.18,1.11,2.56,1.17,4.15h-6.3c-.24-.78-.66-1.38-1.25-1.79-.6-.42-1.33-.63-2.21-.63-1.35,0-2.52.48-3.5,1.43s-1.6,2.24-1.88,3.85c-.08.42-.12.87-.12,1.34,0,1.24.32,2.21.97,2.91.65.71,1.54,1.06,2.67,1.06.88,0,1.69-.21,2.44-.63.75-.42,1.37-1.02,1.87-1.79h6.33c-.96,2.41-2.46,4.32-4.51,5.72s-4.39,2.11-7.02,2.11c-1.81,0-3.38-.35-4.71-1.05-1.33-.7-2.34-1.68-3.03-2.96-.7-1.27-1.05-2.75-1.05-4.42,0-.78.07-1.54.21-2.3.36-2.07,1.12-3.92,2.27-5.54Z"/>
      <path class="cls-1" d="m216.87,132.71l-3.71,21.07h-5.89l3.74-21.07h5.86Z"/>
      <path class="cls-1" d="m225.26,137.34l-.6,3.5h6.72l-.81,4.45h-6.72l-.69,3.83h7.62l-.81,4.66h-13.51l3.74-21.07h13.48l-.81,4.63h-7.62Z"/>
      <path class="cls-1" d="m250.87,134.19c1.16.99,1.73,2.3,1.73,3.93,0,.5-.04.95-.12,1.34-.24,1.43-.85,2.7-1.82,3.78-.98,1.09-2.27,1.86-3.88,2.32l3.29,8.22h-6.51l-2.81-7.77h-.63l-1.37,7.77h-5.89l3.74-21.07h9.23c2.21,0,3.89.49,5.05,1.48Zm-10.04,7.81h2.9c1.55,0,2.47-.74,2.75-2.21.04-.24.06-.41.06-.51,0-.54-.17-.96-.52-1.25-.35-.3-.86-.45-1.54-.45h-2.9l-.75,4.42Z"/>
      <path class="cls-1" d="m256.07,137.65c1.17-1.62,2.65-2.89,4.42-3.79,1.77-.91,3.71-1.36,5.83-1.36,2.65,0,4.73.64,6.23,1.91,1.5,1.28,2.28,3.02,2.32,5.23h-6.3c-.22-.56-.6-.99-1.14-1.29-.54-.3-1.22-.45-2.03-.45-1.45,0-2.69.48-3.72,1.43-1.03.96-1.68,2.24-1.96,3.85-.1.6-.15,1.1-.15,1.49,0,1.33.38,2.35,1.14,3.03.76.69,1.87,1.03,3.35,1.03,2.05,0,3.69-.93,4.9-2.78h-5.89l.75-4.21h10.94l-1.02,5.68c-1.04,1.77-2.52,3.3-4.45,4.57-1.93,1.27-4.16,1.91-6.69,1.91-1.87,0-3.49-.35-4.84-1.06-1.35-.71-2.39-1.7-3.11-2.97-.72-1.27-1.08-2.75-1.08-4.42,0-.8.07-1.55.21-2.27.36-2.07,1.12-3.92,2.3-5.54Z"/>
      <path class="cls-1" d="m284.01,137.34l-.6,3.5h6.72l-.81,4.45h-6.72l-.69,3.83h7.62l-.81,4.66h-13.51l3.74-21.07h13.48l-.81,4.63h-7.62Z"/>
    </g>
  </g>
</svg>